<svg width="621" height="920" viewBox="0 0 621 920" fill="none" xmlns="http://www.w3.org/2000/svg">
<g id="Group 61">
<g id="hall_5109">
<g id="Rectangle 116">
<rect id="Rectangle 116_2" x="108" y="109.237" width="27" height="27" transform="rotate(89.7879 108 109.237)" fill="white"/>
</g>
<g id="Rectangle 117">
<rect id="Rectangle 116_3" x="108.099" y="136.237" width="27" height="27" transform="rotate(89.7879 108.099 136.237)" fill="white"/>
</g>
<g id="Rectangle 118">
<rect id="Rectangle 116_4" x="108.199" y="163.237" width="27" height="27" transform="rotate(89.7879 108.199 163.237)" fill="white"/>
</g>
<g id="Rectangle 120">
<rect id="Rectangle 116_5" x="108.299" y="190.237" width="27" height="27" transform="rotate(89.7879 108.299 190.237)" fill="white"/>
</g>
<g id="Rectangle 121">
<rect id="Rectangle 116_6" x="108.398" y="217.237" width="27" height="27" transform="rotate(89.7879 108.398 217.237)" fill="white"/>
</g>
<g id="Rectangle 116_7">
<rect id="Rectangle 116_8" x="80.9998" y="109.337" width="27" height="27" transform="rotate(89.7879 80.9998 109.337)" fill="white"/>
</g>
<g id="Rectangle 117_2">
<rect id="Rectangle 116_9" x="81.0994" y="136.337" width="27" height="27" transform="rotate(89.7879 81.0994 136.337)" fill="white"/>
</g>
<g id="Rectangle 118_2">
<rect id="Rectangle 116_10" x="81.199" y="163.337" width="27" height="27" transform="rotate(89.7879 81.199 163.337)" fill="white"/>
</g>
<g id="Rectangle 120_2">
<rect id="Rectangle 116_11" x="81.2986" y="190.337" width="27" height="27" transform="rotate(89.7879 81.2986 190.337)" fill="white"/>
</g>
<g id="Rectangle 121_2">
<rect id="Rectangle 116_12" x="81.3983" y="217.337" width="27" height="27" transform="rotate(89.7879 81.3983 217.337)" fill="white"/>
</g>
</g>
<g id="hall_5107">
<g id="Rectangle 116_13">
<rect id="Rectangle 116_14" x="108" y="244.437" width="27" height="27" transform="rotate(89.7879 108 244.437)" fill="white"/>
</g>
<g id="Rectangle 117_3">
<rect id="Rectangle 116_15" x="108.099" y="271.437" width="27" height="27" transform="rotate(89.7879 108.099 271.437)" fill="white"/>
</g>
<g id="Rectangle 118_3">
<rect id="Rectangle 116_16" x="108.199" y="298.437" width="27" height="27" transform="rotate(89.7879 108.199 298.437)" fill="white"/>
</g>
<g id="Rectangle 120_3">
<rect id="Rectangle 116_17" x="108.299" y="325.437" width="27" height="27" transform="rotate(89.7879 108.299 325.437)" fill="white"/>
</g>
<g id="Rectangle 121_3">
<rect id="Rectangle 116_18" x="108.398" y="352.437" width="27" height="27" transform="rotate(89.7879 108.398 352.437)" fill="white"/>
</g>
<g id="Rectangle 116_19">
<rect id="Rectangle 116_20" x="80.9998" y="244.536" width="27" height="27" transform="rotate(89.7879 80.9998 244.536)" fill="white"/>
</g>
<g id="Rectangle 117_4">
<rect id="Rectangle 116_21" x="81.0994" y="271.536" width="27" height="27" transform="rotate(89.7879 81.0994 271.536)" fill="white"/>
</g>
<g id="Rectangle 118_4">
<rect id="Rectangle 116_22" x="81.199" y="298.536" width="27" height="27" transform="rotate(89.7879 81.199 298.536)" fill="white"/>
</g>
<g id="Rectangle 120_4">
<rect id="Rectangle 116_23" x="81.2986" y="325.536" width="27" height="27" transform="rotate(89.7879 81.2986 325.536)" fill="white"/>
</g>
<g id="Rectangle 121_4">
<rect id="Rectangle 116_24" x="81.3983" y="352.536" width="27" height="27" transform="rotate(89.7879 81.3983 352.536)" fill="white"/>
</g>
</g>
<g id="hall_5105">
<g id="Rectangle 117_5">
<rect id="Rectangle 116_25" width="27" height="27" transform="matrix(0.00463325 0.999989 -0.999996 0.00295658 108 379.636)" fill="white"/>
</g>
<g id="Rectangle 118_5">
<rect id="Rectangle 116_26" width="27" height="27" transform="matrix(0.00463325 0.999989 -0.999996 0.00295658 108.126 406.636)" fill="white"/>
</g>
<g id="Rectangle 120_5">
<rect id="Rectangle 116_27" width="27" height="27" transform="matrix(0.00463325 0.999989 -0.999996 0.00295658 108.249 433.636)" fill="white"/>
</g>
<g id="Rectangle 121_5">
<rect id="Rectangle 116_28" width="27" height="27" transform="matrix(0.00463325 0.999989 -0.999996 0.00295658 108.375 460.635)" fill="white"/>
</g>
<g id="Rectangle 117_6">
<rect id="Rectangle 116_29" width="27" height="27" transform="matrix(0.00463325 0.999989 -0.999996 0.00295658 80.9999 379.715)" fill="white"/>
</g>
<g id="Rectangle 118_6">
<rect id="Rectangle 116_30" width="27" height="27" transform="matrix(0.00463325 0.999989 -0.999996 0.00295658 81.1259 406.715)" fill="white"/>
</g>
<g id="Rectangle 120_6">
<rect id="Rectangle 116_31" width="27" height="27" transform="matrix(0.00463325 0.999989 -0.999996 0.00295658 81.2489 433.715)" fill="white"/>
</g>
<g id="Rectangle 121_6">
<rect id="Rectangle 116_32" width="27" height="27" transform="matrix(0.00463325 0.999989 -0.999996 0.00295658 81.3749 460.715)" fill="white"/>
</g>
</g>
<g id="hall_5103">
<g id="Rectangle 116_33">
<rect id="Rectangle 116_34" x="108" y="487.795" width="27" height="27" transform="rotate(89.7879 108 487.795)" fill="white"/>
</g>
<g id="Rectangle 117_7">
<rect id="Rectangle 116_35" x="108.099" y="514.795" width="27" height="27" transform="rotate(89.7879 108.099 514.795)" fill="white"/>
</g>
<g id="Rectangle 118_7">
<rect id="Rectangle 116_36" x="108.199" y="541.795" width="27" height="27" transform="rotate(89.7879 108.199 541.795)" fill="white"/>
</g>
<g id="Rectangle 120_7">
<rect id="Rectangle 116_37" x="108.299" y="568.795" width="27" height="27" transform="rotate(89.7879 108.299 568.795)" fill="white"/>
</g>
<g id="Rectangle 121_7">
<rect id="Rectangle 116_38" x="108.398" y="595.795" width="27" height="27" transform="rotate(89.7879 108.398 595.795)" fill="white"/>
</g>
<g id="Rectangle 116_39">
<rect id="Rectangle 116_40" x="80.9998" y="487.895" width="27" height="27" transform="rotate(89.7879 80.9998 487.895)" fill="white"/>
</g>
<g id="Rectangle 117_8">
<rect id="Rectangle 116_41" x="81.0994" y="514.895" width="27" height="27" transform="rotate(89.7879 81.0994 514.895)" fill="white"/>
</g>
<g id="Rectangle 118_8">
<rect id="Rectangle 116_42" x="81.199" y="541.895" width="27" height="27" transform="rotate(89.7879 81.199 541.895)" fill="white"/>
</g>
<g id="Rectangle 120_8">
<rect id="Rectangle 116_43" x="81.2986" y="568.895" width="27" height="27" transform="rotate(89.7879 81.2986 568.895)" fill="white"/>
</g>
<g id="Rectangle 121_8">
<rect id="Rectangle 116_44" x="81.3983" y="595.895" width="27" height="27" transform="rotate(89.7879 81.3983 595.895)" fill="white"/>
</g>
</g>
<g id="Frame 310">
<g id="hall_5128">
<g id="Rectangle 116_45">
<rect id="Rectangle 116_46" x="243.5" width="27" height="27" transform="rotate(89.7879 243.5 0)" fill="white"/>
</g>
<g id="Rectangle 116_47">
<rect id="Rectangle 116_48" x="270.599" width="27" height="27" transform="rotate(89.7879 270.599 0)" fill="white"/>
</g>
<g id="Rectangle 116_49">
<rect id="Rectangle 116_50" x="243.5" y="27.0996" width="27" height="27" transform="rotate(89.7879 243.5 27.0996)" fill="white"/>
</g>
<g id="Rectangle 116_51">
<rect id="Rectangle 116_52" x="270.599" y="27.0996" width="27" height="27" transform="rotate(89.7879 270.599 27.0996)" fill="white"/>
</g>
<g id="Rectangle 116_53">
<rect id="Rectangle 116_54" x="243.5" y="54.1992" width="27" height="27" transform="rotate(89.7879 243.5 54.1992)" fill="white"/>
</g>
<g id="Rectangle 116_55">
<rect id="Rectangle 116_56" x="270.599" y="54.1992" width="27" height="27" transform="rotate(89.7879 270.599 54.1992)" fill="white"/>
</g>
<g id="Rectangle 116_57">
<rect id="Rectangle 116_58" x="243.5" y="81.2988" width="27" height="27" transform="rotate(89.7879 243.5 81.2988)" fill="white"/>
</g>
<g id="Rectangle 116_59">
<rect id="Rectangle 116_60" x="270.599" y="81.2988" width="27" height="27" transform="rotate(89.7879 270.599 81.2988)" fill="white"/>
</g>
<g id="Rectangle 116_61">
<rect id="Rectangle 116_62" x="243.5" y="108.398" width="27" height="27" transform="rotate(89.7879 243.5 108.398)" fill="white"/>
</g>
<g id="Rectangle 116_63">
<rect id="Rectangle 116_64" x="270.599" y="108.398" width="27" height="27" transform="rotate(89.7879 270.599 108.398)" fill="white"/>
</g>
<g id="Rectangle 117_9">
<rect id="Rectangle 116_65" x="243.5" y="135.498" width="27" height="27" transform="rotate(89.7879 243.5 135.498)" fill="white"/>
</g>
<g id="Rectangle 117_10">
<rect id="Rectangle 116_66" x="270.599" y="135.498" width="27" height="27" transform="rotate(89.7879 270.599 135.498)" fill="white"/>
</g>
<g id="Rectangle 117_11">
<rect id="Rectangle 116_67" x="243.5" y="162.598" width="27" height="27" transform="rotate(89.7879 243.5 162.598)" fill="white"/>
</g>
<g id="Rectangle 117_12">
<rect id="Rectangle 116_68" x="270.599" y="162.598" width="27" height="27" transform="rotate(89.7879 270.599 162.598)" fill="white"/>
</g>
<g id="Rectangle 117_13">
<rect id="Rectangle 116_69" x="243.5" y="189.699" width="27" height="27" transform="rotate(89.7879 243.5 189.699)" fill="white"/>
</g>
<g id="Rectangle 117_14">
<rect id="Rectangle 116_70" x="270.599" y="189.699" width="27" height="27" transform="rotate(89.7879 270.599 189.699)" fill="white"/>
</g>
<g id="Rectangle 117_15">
<rect id="Rectangle 116_71" x="243.5" y="216.798" width="27" height="27" transform="rotate(89.7879 243.5 216.798)" fill="white"/>
</g>
<g id="Rectangle 117_16">
<rect id="Rectangle 116_72" x="270.599" y="216.798" width="27" height="27" transform="rotate(89.7879 270.599 216.798)" fill="white"/>
</g>
</g>
<g id="hall_5130">
<g id="Rectangle 116_73">
<rect id="Rectangle 116_74" x="243.5" y="243.898" width="27" height="27" transform="rotate(89.7879 243.5 243.898)" fill="white"/>
</g>
<g id="Rectangle 116_75">
<rect id="Rectangle 116_76" x="270.599" y="243.898" width="27" height="27" transform="rotate(89.7879 270.599 243.898)" fill="white"/>
</g>
<g id="Rectangle 117_17">
<rect id="Rectangle 116_77" x="243.5" y="270.998" width="27" height="27" transform="rotate(89.7879 243.5 270.998)" fill="white"/>
</g>
<g id="Rectangle 117_18">
<rect id="Rectangle 116_78" x="270.599" y="270.998" width="27" height="27" transform="rotate(89.7879 270.599 270.998)" fill="white"/>
</g>
<g id="Rectangle 117_19">
<rect id="Rectangle 116_79" x="243.5" y="298.097" width="27" height="27" transform="rotate(89.7879 243.5 298.097)" fill="white"/>
</g>
<g id="Rectangle 117_20">
<rect id="Rectangle 116_80" x="270.599" y="298.097" width="27" height="27" transform="rotate(89.7879 270.599 298.097)" fill="white"/>
</g>
<g id="Rectangle 117_21">
<rect id="Rectangle 116_81" x="243.5" y="325.197" width="27" height="27" transform="rotate(89.7879 243.5 325.197)" fill="white"/>
</g>
<g id="Rectangle 117_22">
<rect id="Rectangle 116_82" x="270.599" y="325.197" width="27" height="27" transform="rotate(89.7879 270.599 325.197)" fill="white"/>
</g>
<g id="Rectangle 117_23">
<rect id="Rectangle 116_83" x="243.5" y="352.296" width="27" height="27" transform="rotate(89.7879 243.5 352.296)" fill="white"/>
</g>
<g id="Rectangle 117_24">
<rect id="Rectangle 116_84" x="270.599" y="352.296" width="27" height="27" transform="rotate(89.7879 270.599 352.296)" fill="white"/>
</g>
</g>
<g id="hall_5132">
<g id="Rectangle 116_85">
<rect id="Rectangle 116_86" x="243.5" y="379.396" width="27" height="27" transform="rotate(89.7879 243.5 379.396)" fill="white"/>
</g>
<g id="Rectangle 116_87">
<rect id="Rectangle 116_88" x="270.599" y="379.396" width="27" height="27" transform="rotate(89.7879 270.599 379.396)" fill="white"/>
</g>
<g id="Rectangle 117_25">
<rect id="Rectangle 116_89" x="243.5" y="406.496" width="27" height="27" transform="rotate(89.7879 243.5 406.496)" fill="white"/>
</g>
<g id="Rectangle 117_26">
<rect id="Rectangle 116_90" x="270.599" y="406.496" width="27" height="27" transform="rotate(89.7879 270.599 406.496)" fill="white"/>
</g>
<g id="Rectangle 117_27">
<rect id="Rectangle 116_91" x="243.5" y="433.596" width="27" height="27" transform="rotate(89.7879 243.5 433.596)" fill="white"/>
</g>
<g id="Rectangle 117_28">
<rect id="Rectangle 116_92" x="270.599" y="433.596" width="27" height="27" transform="rotate(89.7879 270.599 433.596)" fill="white"/>
</g>
<g id="Rectangle 117_29">
<rect id="Rectangle 116_93" x="243.5" y="460.695" width="27" height="27" transform="rotate(89.7879 243.5 460.695)" fill="white"/>
</g>
<g id="Rectangle 117_30">
<rect id="Rectangle 116_94" x="270.599" y="460.695" width="27" height="27" transform="rotate(89.7879 270.599 460.695)" fill="white"/>
</g>
</g>
<g id="hall_5134">
<g id="Rectangle 116_95">
<rect id="Rectangle 116_96" x="243.5" y="487.795" width="27" height="27" transform="rotate(89.7879 243.5 487.795)" fill="white"/>
</g>
<g id="Rectangle 116_97">
<rect id="Rectangle 116_98" x="270.599" y="487.795" width="27" height="27" transform="rotate(89.7879 270.599 487.795)" fill="white"/>
</g>
<g id="Rectangle 117_31">
<rect id="Rectangle 116_99" x="243.5" y="514.895" width="27" height="27" transform="rotate(89.7879 243.5 514.895)" fill="white"/>
</g>
<g id="Rectangle 117_32">
<rect id="Rectangle 116_100" x="270.599" y="514.895" width="27" height="27" transform="rotate(89.7879 270.599 514.895)" fill="white"/>
</g>
</g>
</g>
<g id="ev_5">
<g id="Rectangle 116_101">
<rect id="Rectangle 116_102" x="108.699" y="541.994" width="27" height="27" fill="white"/>
</g>
<g id="Rectangle 117_33">
<rect id="Rectangle 116_103" x="135.699" y="541.994" width="27" height="27" fill="white"/>
</g>
<g id="Rectangle 118_9">
<rect id="Rectangle 116_104" x="162.699" y="541.994" width="27" height="27" fill="white"/>
</g>
<g id="Rectangle 120_9">
<rect id="Rectangle 116_105" x="189.699" y="541.994" width="27" height="27" fill="white"/>
</g>
<g id="Rectangle 121_9">
<rect id="Rectangle 116_106" x="216.699" y="541.994" width="27" height="27" fill="white"/>
</g>
<g id="Rectangle 122">
<rect id="Rectangle 116_107" x="243.699" y="541.994" width="27" height="27" fill="white"/>
</g>
<g id="Rectangle 116_108">
<rect id="Rectangle 116_109" x="108.699" y="568.994" width="27" height="27" fill="white"/>
</g>
<g id="Rectangle 117_34">
<rect id="Rectangle 116_110" x="135.699" y="568.994" width="27" height="27" fill="white"/>
</g>
<g id="Rectangle 118_10">
<rect id="Rectangle 116_111" x="162.699" y="568.994" width="27" height="27" fill="white"/>
</g>
<g id="Rectangle 120_10">
<rect id="Rectangle 116_112" x="189.699" y="568.994" width="27" height="27" fill="white"/>
</g>
<g id="Rectangle 121_10">
<rect id="Rectangle 116_113" x="216.699" y="568.994" width="27" height="27" fill="white"/>
</g>
<g id="Rectangle 122_2">
<rect id="Rectangle 116_114" x="243.699" y="568.994" width="27" height="27" fill="white"/>
</g>
<g id="Rectangle 116_115">
<rect id="Rectangle 116_116" x="108.699" y="595.994" width="27" height="27" fill="white"/>
</g>
<g id="Rectangle 117_35">
<rect id="Rectangle 116_117" x="135.699" y="595.994" width="27" height="27" fill="white"/>
</g>
<g id="Rectangle 118_11">
<rect id="Rectangle 116_118" x="162.699" y="595.994" width="27" height="27" fill="white"/>
</g>
<g id="Rectangle 120_11">
<rect id="Rectangle 116_119" x="189.699" y="595.994" width="27" height="27" fill="white"/>
</g>
<g id="Rectangle 121_11">
<rect id="Rectangle 116_120" x="216.699" y="595.994" width="27" height="27" fill="white"/>
</g>
<g id="Rectangle 122_3">
<rect id="Rectangle 116_121" x="243.699" y="595.994" width="27" height="27" fill="white"/>
</g>
</g>
<g id="hall_5147">
<g id="Rectangle 116_122">
<rect id="Rectangle 116_123" y="676.994" width="27" height="27" transform="rotate(-90 0 676.994)" fill="white"/>
</g>
<g id="Rectangle 117_36">
<rect id="Rectangle 116_124" y="649.994" width="27" height="27" transform="rotate(-90 0 649.994)" fill="white"/>
</g>
<g id="Rectangle 116_125">
<rect id="Rectangle 116_126" x="27" y="676.994" width="27" height="27" transform="rotate(-90 27 676.994)" fill="white"/>
</g>
<g id="Rectangle 117_37">
<rect id="Rectangle 116_127" x="27" y="649.994" width="27" height="27" transform="rotate(-90 27 649.994)" fill="white"/>
</g>
<g id="Rectangle 116_128">
<rect id="Rectangle 116_129" x="54" y="676.994" width="27" height="27" transform="rotate(-90 54 676.994)" fill="white"/>
</g>
<g id="Rectangle 117_38">
<rect id="Rectangle 116_130" x="54" y="649.994" width="27" height="27" transform="rotate(-90 54 649.994)" fill="white"/>
</g>
<g id="Rectangle 116_131">
<rect id="Rectangle 116_132" x="81" y="676.994" width="27" height="27" transform="rotate(-90 81 676.994)" fill="white"/>
</g>
<g id="Rectangle 117_39">
<rect id="Rectangle 116_133" x="81" y="649.994" width="27" height="27" transform="rotate(-90 81 649.994)" fill="white"/>
</g>
<g id="Rectangle 116_134">
<rect id="Rectangle 116_135" x="108" y="676.994" width="27" height="27" transform="rotate(-90 108 676.994)" fill="white"/>
</g>
<g id="Rectangle 117_40">
<rect id="Rectangle 116_136" x="108" y="649.994" width="27" height="27" transform="rotate(-90 108 649.994)" fill="white"/>
</g>
<g id="Rectangle 116_137">
<rect id="Rectangle 116_138" x="135" y="676.994" width="27" height="27" transform="rotate(-90 135 676.994)" fill="white"/>
</g>
<g id="Rectangle 117_41">
<rect id="Rectangle 116_139" x="135" y="649.994" width="27" height="27" transform="rotate(-90 135 649.994)" fill="white"/>
</g>
<g id="Rectangle 116_140">
<rect id="Rectangle 116_141" x="162" y="676.994" width="27" height="27" transform="rotate(-90 162 676.994)" fill="white"/>
</g>
<g id="Rectangle 117_42">
<rect id="Rectangle 116_142" x="162" y="649.994" width="27" height="27" transform="rotate(-90 162 649.994)" fill="white"/>
</g>
</g>
<g id="hall_5145">
<g id="Rectangle 116_143">
<rect id="Rectangle 116_144" x="189" y="676.994" width="27" height="27" transform="rotate(-90 189 676.994)" fill="white"/>
</g>
<g id="Rectangle 117_43">
<rect id="Rectangle 116_145" x="189" y="649.994" width="27" height="27" transform="rotate(-90 189 649.994)" fill="white"/>
</g>
<g id="Rectangle 116_146">
<rect id="Rectangle 116_147" x="216" y="676.994" width="27" height="27" transform="rotate(-90 216 676.994)" fill="white"/>
</g>
<g id="Rectangle 117_44">
<rect id="Rectangle 116_148" x="216" y="649.994" width="27" height="27" transform="rotate(-90 216 649.994)" fill="white"/>
</g>
<g id="Rectangle 116_149">
<rect id="Rectangle 116_150" x="243" y="676.994" width="27" height="27" transform="rotate(-90 243 676.994)" fill="white"/>
</g>
<g id="Rectangle 117_45">
<rect id="Rectangle 116_151" x="243" y="649.994" width="27" height="27" transform="rotate(-90 243 649.994)" fill="white"/>
</g>
<g id="Rectangle 116_152">
<rect id="Rectangle 116_153" x="270" y="676.994" width="27" height="27" transform="rotate(-90 270 676.994)" fill="white"/>
</g>
<g id="Rectangle 117_46">
<rect id="Rectangle 116_154" x="270" y="649.994" width="27" height="27" transform="rotate(-90 270 649.994)" fill="white"/>
</g>
<g id="Rectangle 116_155">
<rect id="Rectangle 116_156" x="297" y="676.994" width="27" height="27" transform="rotate(-90 297 676.994)" fill="white"/>
</g>
<g id="Rectangle 117_47">
<rect id="Rectangle 116_157" x="297" y="649.994" width="27" height="27" transform="rotate(-90 297 649.994)" fill="white"/>
</g>
<g id="Rectangle 116_158">
<rect id="Rectangle 116_159" x="324" y="676.994" width="27" height="27" transform="rotate(-90 324 676.994)" fill="white"/>
</g>
<g id="Rectangle 117_48">
<rect id="Rectangle 116_160" x="324" y="649.994" width="27" height="27" transform="rotate(-90 324 649.994)" fill="white"/>
</g>
</g>
<g id="hall_5143">
<g id="Rectangle 116_161">
<rect id="Rectangle 116_162" x="351" y="622.994" width="27" height="27" fill="white"/>
</g>
<g id="Rectangle 117_49">
<rect id="Rectangle 116_163" x="378" y="622.994" width="27" height="27" fill="white"/>
</g>
<g id="Rectangle 118_12">
<rect id="Rectangle 116_164" x="405" y="622.994" width="27" height="27" fill="white"/>
</g>
<g id="Rectangle 120_12">
<rect id="Rectangle 116_165" x="432" y="622.994" width="27" height="27" fill="white"/>
</g>
<g id="Rectangle 121_12">
<rect id="Rectangle 116_166" x="459" y="622.994" width="27" height="27" fill="white"/>
</g>
<g id="Rectangle 116_167">
<rect id="Rectangle 116_168" x="351" y="649.994" width="27" height="27" fill="white"/>
</g>
<g id="Rectangle 117_50">
<rect id="Rectangle 116_169" x="378" y="649.994" width="27" height="27" fill="white"/>
</g>
<g id="Rectangle 118_13">
<rect id="Rectangle 116_170" x="405" y="649.994" width="27" height="27" fill="white"/>
</g>
<g id="Rectangle 120_13">
<rect id="Rectangle 116_171" x="432" y="649.994" width="27" height="27" fill="white"/>
</g>
<g id="Rectangle 121_13">
<rect id="Rectangle 116_172" x="459" y="649.994" width="27" height="27" fill="white"/>
</g>
</g>
<g id="hall_5141">
<g id="Rectangle 116_173">
<rect id="Rectangle 116_174" x="486" y="622.994" width="27" height="27" fill="white"/>
</g>
<g id="Rectangle 117_51">
<rect id="Rectangle 116_175" x="513" y="622.994" width="27" height="27" fill="white"/>
</g>
<g id="Rectangle 118_14">
<rect id="Rectangle 116_176" x="540" y="622.994" width="27" height="27" fill="white"/>
</g>
<g id="Rectangle 120_14">
<rect id="Rectangle 116_177" x="567" y="622.994" width="27" height="27" fill="white"/>
</g>
<g id="Rectangle 121_14">
<rect id="Rectangle 116_178" x="594" y="622.994" width="27" height="27" fill="white"/>
</g>
<g id="Rectangle 116_179">
<rect id="Rectangle 116_180" x="486" y="649.994" width="27" height="27" fill="white"/>
</g>
<g id="Rectangle 117_52">
<rect id="Rectangle 116_181" x="513" y="649.994" width="27" height="27" fill="white"/>
</g>
<g id="Rectangle 118_15">
<rect id="Rectangle 116_182" x="540" y="649.994" width="27" height="27" fill="white"/>
</g>
<g id="Rectangle 120_15">
<rect id="Rectangle 116_183" x="567" y="649.994" width="27" height="27" fill="white"/>
</g>
<g id="Rectangle 121_15">
<rect id="Rectangle 116_184" x="594" y="649.994" width="27" height="27" fill="white"/>
</g>
</g>
<g id="room_5143">
<g id="Rectangle 116_185">
<rect id="Rectangle 116_186" x="351" y="676.994" width="27" height="27" fill="white"/>
</g>
<g id="Rectangle 117_53">
<rect id="Rectangle 116_187" x="378" y="676.994" width="27" height="27" fill="white"/>
</g>
<g id="Rectangle 118_16">
<rect id="Rectangle 116_188" x="405" y="676.994" width="27" height="27" fill="white"/>
</g>
<g id="Rectangle 120_16">
<rect id="Rectangle 116_189" x="432" y="676.994" width="27" height="27" fill="white"/>
</g>
<g id="Rectangle 121_16">
<rect id="Rectangle 116_190" x="459" y="676.994" width="27" height="27" fill="white"/>
</g>
<g id="Rectangle 116_191">
<rect id="Rectangle 116_192" x="351" y="703.994" width="27" height="27" fill="white"/>
</g>
<g id="Rectangle 117_54">
<rect id="Rectangle 116_193" x="378" y="703.994" width="27" height="27" fill="white"/>
</g>
<g id="Rectangle 118_17">
<rect id="Rectangle 116_194" x="405" y="703.994" width="27" height="27" fill="white"/>
</g>
<g id="Rectangle 120_17">
<rect id="Rectangle 116_195" x="432" y="703.994" width="27" height="27" fill="white"/>
</g>
<g id="Rectangle 121_17">
<rect id="Rectangle 116_196" x="459" y="703.994" width="27" height="27" fill="white"/>
</g>
<g id="Rectangle 116_197">
<rect id="Rectangle 116_198" x="351" y="730.994" width="27" height="27" fill="white"/>
</g>
<g id="Rectangle 117_55">
<rect id="Rectangle 116_199" x="378" y="730.994" width="27" height="27" fill="white"/>
</g>
<g id="Rectangle 118_18">
<rect id="Rectangle 116_200" x="405" y="730.994" width="27" height="27" fill="white"/>
</g>
<g id="Rectangle 120_18">
<rect id="Rectangle 116_201" x="432" y="730.994" width="27" height="27" fill="white"/>
</g>
<g id="Rectangle 121_18">
<rect id="Rectangle 116_202" x="459" y="730.994" width="27" height="27" fill="white"/>
</g>
<g id="Rectangle 116_203">
<rect id="Rectangle 116_204" x="351" y="757.994" width="27" height="27" fill="white"/>
</g>
<g id="Rectangle 117_56">
<rect id="Rectangle 116_205" x="378" y="757.994" width="27" height="27" fill="white"/>
</g>
<g id="Rectangle 118_19">
<rect id="Rectangle 116_206" x="405" y="757.994" width="27" height="27" fill="white"/>
</g>
<g id="Rectangle 120_19">
<rect id="Rectangle 116_207" x="432" y="757.994" width="27" height="27" fill="white"/>
</g>
<g id="Rectangle 121_19">
<rect id="Rectangle 116_208" x="459" y="757.994" width="27" height="27" fill="white"/>
</g>
<g id="Rectangle 116_209">
<rect id="Rectangle 116_210" x="351" y="784.994" width="27" height="27" fill="white"/>
</g>
<g id="Rectangle 117_57">
<rect id="Rectangle 116_211" x="378" y="784.994" width="27" height="27" fill="white"/>
</g>
<g id="Rectangle 118_20">
<rect id="Rectangle 116_212" x="405" y="784.994" width="27" height="27" fill="white"/>
</g>
<g id="Rectangle 120_20">
<rect id="Rectangle 116_213" x="432" y="784.994" width="27" height="27" fill="white"/>
</g>
<g id="Rectangle 121_20">
<rect id="Rectangle 116_214" x="459" y="784.994" width="27" height="27" fill="white"/>
</g>
<g id="Rectangle 116_215">
<rect id="Rectangle 116_216" x="351" y="811.994" width="27" height="27" fill="white"/>
</g>
<g id="Rectangle 117_58">
<rect id="Rectangle 116_217" x="378" y="811.994" width="27" height="27" fill="white"/>
</g>
<g id="Rectangle 118_21">
<rect id="Rectangle 116_218" x="405" y="811.994" width="27" height="27" fill="white"/>
</g>
<g id="Rectangle 120_21">
<rect id="Rectangle 116_219" x="432" y="811.994" width="27" height="27" fill="white"/>
</g>
<g id="Rectangle 121_21">
<rect id="Rectangle 116_220" x="459" y="811.994" width="27" height="27" fill="white"/>
</g>
<g id="Rectangle 116_221">
<rect id="Rectangle 116_222" x="351" y="838.994" width="27" height="27" fill="white"/>
</g>
<g id="Rectangle 117_59">
<rect id="Rectangle 116_223" x="378" y="838.994" width="27" height="27" fill="white"/>
</g>
<g id="Rectangle 118_22">
<rect id="Rectangle 116_224" x="405" y="838.994" width="27" height="27" fill="white"/>
</g>
<g id="Rectangle 120_22">
<rect id="Rectangle 116_225" x="432" y="838.994" width="27" height="27" fill="white"/>
</g>
<g id="Rectangle 121_22">
<rect id="Rectangle 116_226" x="459" y="838.994" width="27" height="27" fill="white"/>
</g>
<g id="Rectangle 116_227">
<rect id="Rectangle 116_228" x="351" y="865.994" width="27" height="27" fill="white"/>
</g>
<g id="Rectangle 117_60">
<rect id="Rectangle 116_229" x="378" y="865.994" width="27" height="27" fill="white"/>
</g>
<g id="Rectangle 118_23">
<rect id="Rectangle 116_230" x="405" y="865.994" width="27" height="27" fill="white"/>
</g>
<g id="Rectangle 120_23">
<rect id="Rectangle 116_231" x="432" y="865.994" width="27" height="27" fill="white"/>
</g>
<g id="Rectangle 121_23">
<rect id="Rectangle 116_232" x="459" y="865.994" width="27" height="27" fill="white"/>
</g>
<g id="Rectangle 116_233">
<rect id="Rectangle 116_234" x="351" y="892.994" width="27" height="27" fill="white"/>
</g>
<g id="Rectangle 117_61">
<rect id="Rectangle 116_235" x="378" y="892.994" width="27" height="27" fill="white"/>
</g>
<g id="Rectangle 118_24">
<rect id="Rectangle 116_236" x="405" y="892.994" width="27" height="27" fill="white"/>
</g>
<g id="Rectangle 120_24">
<rect id="Rectangle 116_237" x="432" y="892.994" width="27" height="27" fill="white"/>
</g>
<g id="Rectangle 121_24">
<rect id="Rectangle 116_238" x="459" y="892.994" width="27" height="27" fill="white"/>
</g>
</g>
<g id="room_5141">
<g id="Rectangle 116_239">
<rect id="Rectangle 116_240" x="486" y="676.994" width="27" height="27" fill="white"/>
</g>
<g id="Rectangle 117_62">
<rect id="Rectangle 116_241" x="513" y="676.994" width="27" height="27" fill="white"/>
</g>
<g id="Rectangle 118_25">
<rect id="Rectangle 116_242" x="540" y="676.994" width="27" height="27" fill="white"/>
</g>
<g id="Rectangle 120_25">
<rect id="Rectangle 116_243" x="567" y="676.994" width="27" height="27" fill="white"/>
</g>
<g id="Rectangle 121_25">
<rect id="Rectangle 116_244" x="594" y="676.994" width="27" height="27" fill="white"/>
</g>
<g id="Rectangle 116_245">
<rect id="Rectangle 116_246" x="486" y="703.994" width="27" height="27" fill="white"/>
</g>
<g id="Rectangle 117_63">
<rect id="Rectangle 116_247" x="513" y="703.994" width="27" height="27" fill="white"/>
</g>
<g id="Rectangle 118_26">
<rect id="Rectangle 116_248" x="540" y="703.994" width="27" height="27" fill="white"/>
</g>
<g id="Rectangle 120_26">
<rect id="Rectangle 116_249" x="567" y="703.994" width="27" height="27" fill="white"/>
</g>
<g id="Rectangle 121_26">
<rect id="Rectangle 116_250" x="594" y="703.994" width="27" height="27" fill="white"/>
</g>
<g id="Rectangle 116_251">
<rect id="Rectangle 116_252" x="486" y="730.994" width="27" height="27" fill="white"/>
</g>
<g id="Rectangle 117_64">
<rect id="Rectangle 116_253" x="513" y="730.994" width="27" height="27" fill="white"/>
</g>
<g id="Rectangle 118_27">
<rect id="Rectangle 116_254" x="540" y="730.994" width="27" height="27" fill="white"/>
</g>
<g id="Rectangle 120_27">
<rect id="Rectangle 116_255" x="567" y="730.994" width="27" height="27" fill="white"/>
</g>
<g id="Rectangle 121_27">
<rect id="Rectangle 116_256" x="594" y="730.994" width="27" height="27" fill="white"/>
</g>
<g id="Rectangle 116_257">
<rect id="Rectangle 116_258" x="486" y="757.994" width="27" height="27" fill="white"/>
</g>
<g id="Rectangle 117_65">
<rect id="Rectangle 116_259" x="513" y="757.994" width="27" height="27" fill="white"/>
</g>
<g id="Rectangle 118_28">
<rect id="Rectangle 116_260" x="540" y="757.994" width="27" height="27" fill="white"/>
</g>
<g id="Rectangle 120_28">
<rect id="Rectangle 116_261" x="567" y="757.994" width="27" height="27" fill="white"/>
</g>
<g id="Rectangle 121_28">
<rect id="Rectangle 116_262" x="594" y="757.994" width="27" height="27" fill="white"/>
</g>
<g id="Rectangle 116_263">
<rect id="Rectangle 116_264" x="486" y="784.994" width="27" height="27" fill="white"/>
</g>
<g id="Rectangle 117_66">
<rect id="Rectangle 116_265" x="513" y="784.994" width="27" height="27" fill="white"/>
</g>
<g id="Rectangle 118_29">
<rect id="Rectangle 116_266" x="540" y="784.994" width="27" height="27" fill="white"/>
</g>
<g id="Rectangle 120_29">
<rect id="Rectangle 116_267" x="567" y="784.994" width="27" height="27" fill="white"/>
</g>
<g id="Rectangle 121_29">
<rect id="Rectangle 116_268" x="594" y="784.994" width="27" height="27" fill="white"/>
</g>
<g id="Rectangle 116_269">
<rect id="Rectangle 116_270" x="486" y="811.994" width="27" height="27" fill="white"/>
</g>
<g id="Rectangle 117_67">
<rect id="Rectangle 116_271" x="513" y="811.994" width="27" height="27" fill="white"/>
</g>
<g id="Rectangle 118_30">
<rect id="Rectangle 116_272" x="540" y="811.994" width="27" height="27" fill="white"/>
</g>
<g id="Rectangle 120_30">
<rect id="Rectangle 116_273" x="567" y="811.994" width="27" height="27" fill="white"/>
</g>
<g id="Rectangle 121_30">
<rect id="Rectangle 116_274" x="594" y="811.994" width="27" height="27" fill="white"/>
</g>
<g id="Rectangle 116_275">
<rect id="Rectangle 116_276" x="486" y="838.994" width="27" height="27" fill="white"/>
</g>
<g id="Rectangle 117_68">
<rect id="Rectangle 116_277" x="513" y="838.994" width="27" height="27" fill="white"/>
</g>
<g id="Rectangle 118_31">
<rect id="Rectangle 116_278" x="540" y="838.994" width="27" height="27" fill="white"/>
</g>
<g id="Rectangle 120_31">
<rect id="Rectangle 116_279" x="567" y="838.994" width="27" height="27" fill="white"/>
</g>
<g id="Rectangle 121_31">
<rect id="Rectangle 116_280" x="594" y="838.994" width="27" height="27" fill="white"/>
</g>
<g id="Rectangle 116_281">
<rect id="Rectangle 116_282" x="486" y="865.994" width="27" height="27" fill="white"/>
</g>
<g id="Rectangle 117_69">
<rect id="Rectangle 116_283" x="513" y="865.994" width="27" height="27" fill="white"/>
</g>
<g id="Rectangle 118_32">
<rect id="Rectangle 116_284" x="540" y="865.994" width="27" height="27" fill="white"/>
</g>
<g id="Rectangle 120_32">
<rect id="Rectangle 116_285" x="567" y="865.994" width="27" height="27" fill="white"/>
</g>
<g id="Rectangle 121_32">
<rect id="Rectangle 116_286" x="594" y="865.994" width="27" height="27" fill="white"/>
</g>
<g id="Rectangle 116_287">
<rect id="Rectangle 116_288" x="486" y="892.994" width="27" height="27" fill="white"/>
</g>
<g id="Rectangle 117_70">
<rect id="Rectangle 116_289" x="513" y="892.994" width="27" height="27" fill="white"/>
</g>
<g id="Rectangle 118_33">
<rect id="Rectangle 116_290" x="540" y="892.994" width="27" height="27" fill="white"/>
</g>
<g id="Rectangle 120_33">
<rect id="Rectangle 116_291" x="567" y="892.994" width="27" height="27" fill="white"/>
</g>
<g id="Rectangle 121_33">
<rect id="Rectangle 116_292" x="594" y="892.994" width="27" height="27" fill="white"/>
</g>
</g>
</g>
</svg>
